<?xml version="1.0" encoding="iso-8859-1"?>
<!-- Generator: Adobe Illustrator 19.0.0, SVG Export Plug-In . SVG Version: 6.00 Build 0)  -->
<svg version="1.1" id="Layer_1" xmlns="http://www.w3.org/2000/svg" xmlns:xlink="http://www.w3.org/1999/xlink" x="0px" y="0px"
	 viewBox="0 0 512.004 512.004" style="enable-background:new 0 0 512.004 512.004;" xml:space="preserve">
<g>
	<path style="fill:#BDC3C7;" d="M308.965,194.208c-16.066,7.645-33.986,12.05-52.966,12.05s-36.899-4.405-52.966-12.05v65.015
		h105.931V194.208z"/>
	<polygon style="fill:#E64C3C;" points="291.309,433.286 220.689,433.286 255.999,353.837 	"/>
	<g>
		<polygon style="fill:#C03A2B;" points="211.861,512.001 220.689,433.286 291.309,433.286 300.137,511.922 		"/>
		<polygon style="fill:#C03A2B;" points="255.999,353.837 291.309,433.286 361.93,336.182 353.103,300.872 		"/>
	</g>
	<g>
		<path style="fill:#4482C3;" d="M490.482,404.023c-48.658-25.609-94.835-45.1-137.384-50.185h-4.008l-57.777,79.448l8.828,78.716
			h211.862v-72.316C512.004,424.742,503.706,410.988,490.482,404.023"/>
		<path style="fill:#4482C3;" d="M162.904,353.837h-4.008c-42.54,5.085-88.726,24.576-137.384,50.185
			C8.289,410.987,0,424.741,0,439.686v72.316h211.862l8.828-78.716L162.904,353.837z"/>
	</g>
	<path style="fill:#F0C419;" d="M361.93,105.932c0,58.5-47.431,105.931-105.931,105.931s-105.931-47.431-105.931-105.931
		S197.499,0.001,255.999,0.001S361.93,47.432,361.93,105.932"/>
	<polygon style="fill:#C03A2B;" points="255.999,353.837 220.689,433.286 150.068,336.182 158.896,300.872 	"/>
	<g>
		<path style="fill:#C9AC4F;" d="M238.344,211.863c-4.882,0-8.828-3.955-8.828-8.828v-79.448c0-14.601-11.882-26.483-26.483-26.483
			c-4.882,0-8.828-3.955-8.828-8.828c0-4.873,3.946-8.828,8.828-8.828c24.338,0,44.138,19.8,44.138,44.138v79.448
			C247.172,207.909,243.226,211.863,238.344,211.863"/>
		<path style="fill:#C9AC4F;" d="M273.654,211.863c-4.882,0-8.828-3.955-8.828-8.828v-79.448c0-24.338,19.8-44.138,44.138-44.138
			c4.882,0,8.828,3.955,8.828,8.828c0,4.873-3.946,8.828-8.828,8.828c-14.601,0-26.483,11.882-26.483,26.483v79.448
			C282.482,207.909,278.536,211.863,273.654,211.863"/>
		<path style="fill:#C9AC4F;" d="M291.309,158.898h-70.621c-4.882,0-8.828-3.955-8.828-8.828c0-4.873,3.946-8.828,8.828-8.828
			h70.621c4.882,0,8.828,3.955,8.828,8.828C300.137,154.943,296.191,158.898,291.309,158.898"/>
	</g>
</g>
<g>
</g>
<g>
</g>
<g>
</g>
<g>
</g>
<g>
</g>
<g>
</g>
<g>
</g>
<g>
</g>
<g>
</g>
<g>
</g>
<g>
</g>
<g>
</g>
<g>
</g>
<g>
</g>
<g>
</g>
</svg>
