<?xml version="1.0" encoding="iso-8859-1"?>
<!-- Generator: Adobe Illustrator 19.0.0, SVG Export Plug-In . SVG Version: 6.00 Build 0)  -->
<svg version="1.1" id="Layer_1" xmlns="http://www.w3.org/2000/svg" xmlns:xlink="http://www.w3.org/1999/xlink" x="0px" y="0px"
	 viewBox="0 0 512 512" style="enable-background:new 0 0 512 512;" xml:space="preserve">
<g>
	<path style="fill:#BDC3C7;" d="M351.103,472.276H160.886c-1.969,0-2.737-2.719-1.095-3.858l15.943-11.238
		c17.187-12.12,25.309-34.348,20.303-55.526h119.94v0.018c-5.014,21.177,3.116,43.405,20.312,55.526l15.925,11.22
		C353.857,469.575,353.08,472.276,351.103,472.276"/>
	<path style="fill:#556080;" d="M512,322.207H0V44.129c0-17.064,13.824-30.888,30.879-30.888h450.242
		c17.055,0,30.879,13.824,30.879,30.888V322.207z"/>
	<g>
		<path style="fill:#ECF0F1;" d="M357.517,498.759H154.483c-7.283,0-13.241-5.959-13.241-13.241s5.959-13.241,13.241-13.241h203.034
			c7.283,0,13.241,5.959,13.241,13.241S364.8,498.759,357.517,498.759"/>
		<path style="fill:#ECF0F1;" d="M0,370.772c0,17.055,13.824,30.888,30.879,30.888h450.242c17.055,0,30.879-13.833,30.879-30.888
			v-48.561H0V370.772z"/>
	</g>
	<path style="fill:#FFFFFF;" d="M264.828,225.103c-2.26,0-4.52-0.865-6.241-2.586c-3.452-3.452-3.452-9.031,0-12.482l35.31-35.31
		c3.452-3.452,9.031-3.452,12.482,0c3.452,3.452,3.452,9.031,0,12.482l-35.31,35.31
		C269.347,224.238,267.087,225.103,264.828,225.103"/>
	<path style="fill:#C03A2B;" d="M388.414,207.448h-35.31c0-53.539-43.564-97.103-97.103-97.103s-97.103,43.564-97.103,97.103h-35.31
		c0-73.013,59.401-132.414,132.414-132.414S388.414,134.435,388.414,207.448"/>
	<path style="fill:#F0C419;" d="M273.655,233.931c0,14.627-11.855,26.483-26.483,26.483s-26.483-11.855-26.483-26.483
		s11.855-26.483,26.483-26.483S273.655,219.304,273.655,233.931"/>
</g>
<g>
</g>
<g>
</g>
<g>
</g>
<g>
</g>
<g>
</g>
<g>
</g>
<g>
</g>
<g>
</g>
<g>
</g>
<g>
</g>
<g>
</g>
<g>
</g>
<g>
</g>
<g>
</g>
<g>
</g>
</svg>
