<?xml version="1.0" encoding="iso-8859-1"?>
<!-- Generator: Adobe Illustrator 19.0.0, SVG Export Plug-In . SVG Version: 6.00 Build 0)  -->
<svg version="1.1" id="Layer_1" xmlns="http://www.w3.org/2000/svg" xmlns:xlink="http://www.w3.org/1999/xlink" x="0px" y="0px"
	 viewBox="0 0 509.857 509.857" style="enable-background:new 0 0 509.857 509.857;" xml:space="preserve">
<g>
	<path style="fill:#556080;" d="M302.436,277.182c-7.298,9.025-15.525,17.243-24.55,24.55l75.021,75.012l24.55-24.541
		L302.436,277.182z"/>
	<path style="fill:#8697CB;" d="M174.267,17.356c-86.129,0-156.203,70.075-156.203,156.203s70.075,156.203,156.203,156.203
		S330.47,259.688,330.47,173.559S260.395,17.356,174.267,17.356 M174.267,347.119c-95.701,0-173.559-77.859-173.559-173.559
		S78.566,0,174.267,0s173.559,77.859,173.559,173.559S269.967,347.119,174.267,347.119"/>
	<path style="fill:#353E56;" d="M498.983,499.69L498.983,499.69c-13.555,13.555-35.536,13.555-49.091,0L340.636,389.02
		l49.091-49.091l109.256,110.67C512.538,464.154,512.538,486.135,498.983,499.69"/>
	<g>
		<path style="fill:#8697CB;" d="M174.267,17.356c-42.331,0-78.102,71.532-78.102,156.203s35.771,156.203,78.102,156.203
			s78.102-71.533,78.102-156.203S216.598,17.356,174.267,17.356 M174.267,347.119c-53.526,0-95.458-76.236-95.458-173.559
			S120.741,0,174.267,0s95.458,76.236,95.458,173.559S227.792,347.119,174.267,347.119"/>
		<polygon style="fill:#8697CB;" points="165.589,338.441 182.945,338.441 182.945,8.678 165.589,8.678 		"/>
		<polygon style="fill:#8697CB;" points="9.385,182.237 339.148,182.237 339.148,164.881 9.385,164.881 		"/>
	</g>
</g>
<g>
</g>
<g>
</g>
<g>
</g>
<g>
</g>
<g>
</g>
<g>
</g>
<g>
</g>
<g>
</g>
<g>
</g>
<g>
</g>
<g>
</g>
<g>
</g>
<g>
</g>
<g>
</g>
<g>
</g>
</svg>
