<?xml version="1.0" encoding="iso-8859-1"?>
<!-- Generator: Adobe Illustrator 19.0.0, SVG Export Plug-In . SVG Version: 6.00 Build 0)  -->
<svg version="1.1" id="Layer_1" xmlns="http://www.w3.org/2000/svg" xmlns:xlink="http://www.w3.org/1999/xlink" x="0px" y="0px"
	 viewBox="0 0 512 512" style="enable-background:new 0 0 512 512;" xml:space="preserve">
<g>
	<path style="fill:#072F3D;" d="M280.349,94.146c-9.864,0-17.86-7.997-17.86-17.86V47.014c0-9.864,7.997-17.86,17.86-17.86
		s17.86,7.997,17.86,17.86v29.272C298.21,86.151,290.213,94.146,280.349,94.146z"/>
	<path style="fill:#072F3D;" d="M307.352,208.49c-6.695,0-13.112-3.782-16.161-10.235c-4.214-8.918-0.399-19.566,8.519-23.779
		l83.502-39.453V17.86c0-9.864,7.997-17.86,17.86-17.86c9.864,0,17.86,7.997,17.86,17.86v128.477c0,6.908-3.984,13.198-10.23,16.149
		l-93.733,44.286C312.505,207.937,309.907,208.49,307.352,208.49z"/>
	<path style="fill:#072F3D;" d="M387.5,512c-9.864,0-17.86-7.997-17.86-17.86v-149.78c0-9.864,7.997-17.86,17.86-17.86
		s17.86,7.997,17.86,17.86v149.78C405.361,504.003,397.364,512,387.5,512z"/>
	<path style="fill:#072F3D;" d="M317.199,244.453c-3.282-9.303,1.599-19.504,10.901-22.785l138.935-49.015V17.86
		c0-9.864,7.997-17.86,17.86-17.86s17.86,7.997,17.86,17.86v167.43c0,7.573-4.776,14.323-11.919,16.844l-150.854,53.219
		C330.68,258.635,320.48,253.753,317.199,244.453z"/>
	<path style="fill:#072F3D;" d="M484.897,511.634c-9.864,0-17.86-7.997-17.86-17.86V338.982l-98.408-34.715
		c-9.303-3.282-14.184-13.482-10.901-22.785c3.282-9.303,13.483-14.182,22.785-10.901l110.326,38.92
		c7.142,2.52,11.919,9.27,11.919,16.844v167.43C502.757,503.639,494.76,511.634,484.897,511.634z"/>
</g>
<g>
	<path style="fill:#325763;" d="M231.65,94.146c-9.864,0-17.86-7.997-17.86-17.86V47.014c0-9.864,7.997-17.86,17.86-17.86
		c9.864,0,17.86,7.997,17.86,17.86v29.272C249.51,86.151,241.513,94.146,231.65,94.146z"/>
	<path style="fill:#325763;" d="M204.647,208.49c-2.556,0-5.153-0.552-7.617-1.716l-93.733-44.286
		c-6.246-2.952-10.23-9.241-10.23-16.149V17.86c0-9.864,7.997-17.86,17.86-17.86s17.86,7.997,17.86,17.86v117.162l83.502,39.453
		c8.918,4.214,12.733,14.86,8.519,23.779C217.759,204.708,211.341,208.49,204.647,208.49z"/>
	<path style="fill:#325763;" d="M124.499,512c-9.864,0-17.86-7.997-17.86-17.86v-149.78c0-9.864,7.997-17.86,17.86-17.86
		s17.86,7.997,17.86,17.86v149.78C142.359,504.003,134.362,512,124.499,512z"/>
	<path style="fill:#325763;" d="M172.015,255.353L21.16,202.134c-7.143-2.52-11.919-9.27-11.919-16.844V17.86
		C9.242,7.997,17.238,0,27.102,0s17.86,7.997,17.86,17.86v154.792l138.935,49.015c9.303,3.282,14.184,13.482,10.901,22.785
		C191.518,253.753,181.319,258.635,172.015,255.353z"/>
	<path style="fill:#325763;" d="M27.102,511.634c-9.864,0-17.86-7.997-17.86-17.86v-167.43c0-7.573,4.777-14.323,11.919-16.844
		l110.326-38.92c9.304-3.282,19.504,1.6,22.785,10.901c3.282,9.303-1.599,19.504-10.901,22.785l-98.408,34.715v154.792
		C44.963,503.639,36.966,511.634,27.102,511.634z"/>
</g>
<path style="fill:#6B8F9C;" d="M315.663,207.447c17.593-16.153,28.643-39.325,28.643-65.035c0-48.694-39.615-88.308-88.308-88.308
	S167.69,93.72,167.69,142.412c0,25.71,11.051,48.882,28.643,65.035c-52.746,23.075-89.696,75.756-89.696,136.912
	c0,82.358,67.003,149.36,149.361,149.36s149.361-67.002,149.361-149.36C405.361,283.203,368.408,230.521,315.663,207.447z"/>
<path style="fill:#325763;" d="M315.663,207.447c17.593-16.153,28.643-39.325,28.643-65.035c0-48.694-39.615-88.308-88.308-88.308
	V493.72c82.358,0,149.361-67.002,149.361-149.36C405.361,283.203,368.408,230.521,315.663,207.447z"/>
<g>
</g>
<g>
</g>
<g>
</g>
<g>
</g>
<g>
</g>
<g>
</g>
<g>
</g>
<g>
</g>
<g>
</g>
<g>
</g>
<g>
</g>
<g>
</g>
<g>
</g>
<g>
</g>
<g>
</g>
</svg>
